<?xml version="1.0" encoding="UTF-8" standalone="no"?>
<!-- Created with Inkscape (http://www.inkscape.org/) -->

<svg
   xmlns:dc="http://purl.org/dc/elements/1.1/"
   xmlns:cc="http://creativecommons.org/ns#"
   xmlns:rdf="http://www.w3.org/1999/02/22-rdf-syntax-ns#"
   xmlns:svg="http://www.w3.org/2000/svg"
   xmlns="http://www.w3.org/2000/svg"
   xmlns:xlink="http://www.w3.org/1999/xlink"
   xmlns:sodipodi="http://sodipodi.sourceforge.net/DTD/sodipodi-0.dtd"
   xmlns:inkscape="http://www.inkscape.org/namespaces/inkscape"
   width="980mm"
   height="360mm"
   viewBox="0 0 980 360"
   version="1.1"
   id="svg8"
   inkscape:version="0.92.4 (5da689c313, 2019-01-14)"
   sodipodi:docname="描画-1.svg">
  <defs
     id="defs2">
    <rect
       id="b2IqG6fiQ9"
       rx="48"
       y="0"
       x="0"
       height="640"
       width="640" />
    <path
       id="awa1Qnkqp"
       d="m 435.18,560.47 c 23.18,-15.11 46.66,-29.76 69.87,-44.82 -26.78,-19.73 -57.34,-34.54 -82.84,-55.78 -22.04,-25.47 15.54,-65.2 42.06,-43.16 39.91,25.48 80.42,50.26 119.72,76.55 27.13,28.42 -9.44,54.73 -33.54,66.07 -32.07,19.57 -62.86,41.7 -95.88,59.41 -4.59,0.93 -9.38,1.09 -14.01,0.37 -28.81,-4.74 -32.64,-48.32 -5.38,-58.64 z M 310.66,616.99 C 193.46,614.44 83.2,534.93 42.87,425.01 -0.36,315.07 30.96,181.45 118.5,102.16 204.84,19.29 342.95,-1.52 450.01,51.76 c 102.41,48.17 171.62,158.88 168.28,272.22 -2.14,28.68 -45.6,35.86 -57.39,9.87 -7.18,-28.74 -3.82,-60.12 -15.57,-88.32 C 514.62,147.76 414.34,77.93 311.89,83.79 204.36,85.77 106.24,171.01 88.72,277.03 c -19.04,96.35 29.62,200.88 115.73,248.21 36.43,21.04 78.55,30.89 120.44,31.05 37.71,4.72 29.63,65.39 -7.5,60.88 -1.35,-0.04 -5.39,-0.14 -6.73,-0.18 z M 224.95,299.78 c -24.4,-15.54 -51.92,-27.01 -74.13,-45.51 -19.44,-21.89 6.67,-57.92 33.37,-47.44 48.73,26.48 96.41,55.19 144.65,82.7 56.15,0.4 112.49,-0.53 168.51,0.7 31.73,5.95 30.25,55.85 -1.61,60.3 -59.9,-0.01 -119.8,0.18 -179.7,-0.06 -31.81,-13.59 -60.45,-34.41 -91.09,-50.69 z"
       inkscape:connector-curvature="0" />
  </defs>
  <sodipodi:namedview
     id="base"
     pagecolor="#333333"
     bordercolor="#666666"
     borderopacity="1.0"
     inkscape:pageopacity="0"
     inkscape:pageshadow="2"
     inkscape:zoom="0.175"
     inkscape:cx="3228.5739"
     inkscape:cy="341.83156"
     inkscape:document-units="mm"
     inkscape:current-layer="g823"
     showgrid="false"
     inkscape:window-width="1858"
     inkscape:window-height="1057"
     inkscape:window-x="1134"
     inkscape:window-y="476"
     inkscape:window-maximized="1"
     fit-margin-top="0"
     fit-margin-left="0"
     fit-margin-right="0"
     fit-margin-bottom="0"
     inkscape:pagecheckerboard="true" />
  <metadata
     id="metadata5">
    <rdf:RDF>
      <cc:Work
         rdf:about="">
        <dc:format>image/svg+xml</dc:format>
        <dc:type
           rdf:resource="http://purl.org/dc/dcmitype/StillImage" />
        <dc:title></dc:title>
      </cc:Work>
    </rdf:RDF>
  </metadata>
  <g
     inkscape:label="レイヤー 1"
     inkscape:groupmode="layer"
     id="layer1"
     transform="translate(259.29166,75.095237)">
    <g
       id="g823"
       transform="matrix(0.31322638,0,0,0.31023892,-14.080152,53.555167)"
       style="opacity:1">
      <rect
         style="opacity:1;fill:#333333;fill-opacity:1;stroke:none;stroke-width:13.37995529;stroke-miterlimit:4;stroke-dasharray:none;stroke-opacity:1"
         id="rect4561"
         width="3128.7275"
         height="1160.396"
         x="-782.85712"
         y="-414.6817" />
      <use
         id="use821"
         xlink:href="#awa1Qnkqp"
         style="opacity:1;fill:#009688;fill-opacity:1"
         x="0"
         y="0"
         width="100%"
         height="100%"
         transform="matrix(0.63635042,0,0,0.63635042,577.23746,179.61815)" />
    </g>
    <flowRoot
       xml:space="preserve"
       id="flowRoot827"
       style="font-style:normal;font-variant:normal;font-weight:bold;font-stretch:normal;font-size:40px;line-height:1.25;font-family:sans-serif;-inkscape-font-specification:'sans-serif Bold';letter-spacing:0px;word-spacing:0px;fill:#000000;fill-opacity:1;stroke:none"
       transform="scale(0.26458333)"><flowRegion
         id="flowRegion829"><rect
           id="rect831"
           width="202.85715"
           height="105.71429"
           x="-14.285714"
           y="151.09111" /></flowRegion><flowPara
         id="flowPara833"></flowPara></flowRoot>    <text
       xml:space="preserve"
       style="font-style:normal;font-variant:normal;font-weight:bold;font-stretch:normal;font-size:82.78517151px;line-height:1.25;font-family:sans-serif;-inkscape-font-specification:'sans-serif Bold';letter-spacing:0px;word-spacing:0px;opacity:0.98000004;fill:#009688;fill-opacity:1;stroke:none;stroke-width:2.06962919"
       x="55.581482"
       y="57.242039"
       id="text837"><tspan
         sodipodi:role="line"
         x="55.581482"
         y="57.242039"
         style="font-style:normal;font-variant:normal;font-weight:normal;font-stretch:normal;font-family:'Noto Sans JP';-inkscape-font-specification:'Noto Sans JP';fill:#009688;fill-opacity:1;stroke-width:2.06962919"
         id="tspan839">easyLazy</tspan></text>
  </g>
</svg>
