<?xml version="1.0" encoding="UTF-8" standalone="no"?>
<!DOCTYPE svg PUBLIC "-//W3C//DTD SVG 1.1//EN" "http://www.w3.org/Graphics/SVG/1.1/DTD/svg11.dtd">
<svg version="1.1" xmlns="http://www.w3.org/2000/svg" xmlns:xlink="http://www.w3.org/1999/xlink" viewBox="0 0 640 640" width="640" height="640">
<defs>
<rect width="640" height="640" x="0" y="0" rx="48" id="b2IqG6fiQ9"/>
<path
d="M435.18 560.47C458.36 545.36 481.84 530.71 505.05 515.65C478.27 495.92 447.71 481.11 422.21 459.87C400.17 434.4 437.75 394.67 464.27 416.71C504.18 442.19 544.69 466.97 583.99 493.26C611.12 521.68 574.55 547.99 550.45 559.33C518.38 578.9 487.59 601.03 454.57 618.74C449.98 619.67 445.19 619.83 440.56 619.11C411.75 614.37 407.92 570.79 435.18 560.47ZM310.66 616.99C193.46 614.44 83.2 534.93 42.87 425.01C-0.36 315.07 30.96 181.45 118.5 102.16C204.84 19.29 342.95 -1.52 450.01 51.76C552.42 99.93 621.63 210.64 618.29 323.98C616.15 352.66 572.69 359.84 560.9 333.85C553.72 305.11 557.08 273.73 545.33 245.53C514.62 147.76 414.34 77.93 311.89 83.79C204.36 85.77 106.24 171.01 88.72 277.03C69.68 373.38 118.34 477.91 204.45 525.24C240.88 546.28 283 556.13 324.89 556.29C362.6 561.01 354.52 621.68 317.39 617.17C316.04 617.13 312 617.03 310.66 616.99ZM224.95 299.78C200.55 284.24 173.03 272.77 150.82 254.27C131.38 232.38 157.49 196.35 184.19 206.83C232.92 233.31 280.6 262.02 328.84 289.53C384.99 289.93 441.33 289 497.35 290.23C529.08 296.18 527.6 346.08 495.74 350.53C435.84 350.52 375.94 350.71 316.04 350.47C284.23 336.88 255.59 316.06 224.95 299.78Z"
id="awa1Qnkqp"></path>
</defs>
<g>
<use xlink:href="#b2IqG6fiQ9" opacity="1" fill="#333333" fill-opacity="1"></use>
<use xlink:href="#awa1Qnkqp" opacity="1" fill="#009688" fill-opacity="1"></use>
</g>
</svg>
